<svg width="348" height="400" viewBox="0 0 348 400" fill="none" xmlns="http://www.w3.org/2000/svg">
<path fill-rule="evenodd" clip-rule="evenodd" d="M299 72.1686L248.077 124.742C243.608 120.56 237.603 118 231 118C217.193 118 206 129.193 206 143C206 156.807 217.193 168 231 168C244.807 168 256 156.807 256 143C256 137.968 254.513 133.284 251.956 129.361L304.357 75.2616L344.705 98.5566C346.252 99.4498 347.205 101.1 347.205 102.887V297.113C347.205 298.9 346.252 300.55 344.705 301.443L176.5 398.557C174.953 399.45 173.047 399.45 171.5 398.557L3.29492 301.443C1.74791 300.55 0.794922 298.9 0.794922 297.113V102.887C0.794922 101.1 1.74792 99.4498 3.29492 98.5566L171.5 1.44337C173.047 0.55021 174.953 0.550212 176.5 1.44338L212.069 21.9794L146.08 90.1072C142.5 88.1271 138.381 87 134 87C120.193 87 109 98.1929 109 112C109 125.807 120.193 137 134 137C147.807 137 159 125.807 159 112C159 104.754 155.917 98.2273 150.991 93.6613L217.427 25.0724L259.95 49.6233L164.381 148.29C160.139 144.975 154.8 143 149 143C135.193 143 124 154.193 124 168C124 181.807 135.193 193 149 193C162.807 193 174 181.807 174 168C174 162.156 171.995 156.78 168.634 152.523L265.307 52.7163L299 72.1686ZM231 163C242.046 163 251 154.046 251 143C251 131.954 242.046 123 231 123C219.954 123 211 131.954 211 143C211 154.046 219.954 163 231 163ZM134 132C145.046 132 154 123.046 154 112C154 100.954 145.046 92 134 92C122.954 92 114 100.954 114 112C114 123.046 122.954 132 134 132ZM169 168C169 179.046 160.046 188 149 188C137.954 188 129 179.046 129 168C129 156.954 137.954 148 149 148C160.046 148 169 156.954 169 168Z" fill="#023E8A"/>
</svg>
